<svg width="358" height="278" viewBox="0 0 358 278" fill="none" xmlns="http://www.w3.org/2000/svg">
<rect x="6" y="6" width="281" height="202" rx="16" stroke="black" stroke-width="11"/>
<rect x="124" y="208" width="46" height="47" stroke="black" stroke-width="11"/>
<rect x="77" y="255" width="140" height="17" stroke="black" stroke-width="11"/>
<g clip-path="url(#clip0_3250_1106)">
<path d="M156.94 99.7971L145.646 106.284L136.959 91.2254L148.195 84.7388C147.731 82.7117 147.5 80.6267 147.5 78.4838C147.5 76.3408 147.789 74.2558 148.195 72.2288L136.959 65.7421L145.646 50.6838L156.94 57.1704C160.01 54.3325 163.716 52.2475 167.771 50.9733V38H185.146V51.0892C189.2 52.3633 192.906 54.5063 195.976 57.2863L207.27 50.7996L215.899 65.8579L204.664 72.3446C205.127 74.3717 205.359 76.4567 205.359 78.5996C205.359 80.7425 205.069 82.8275 204.664 84.8546L215.899 91.2254L207.212 106.284L195.918 99.7971C192.849 102.635 189.142 104.72 185.088 105.994V119.083H167.713V105.994C163.659 104.72 159.952 102.577 156.882 99.7971H156.94ZM176.458 66.9583C170.087 66.9583 164.875 72.1708 164.875 78.5417C164.875 84.9125 170.087 90.125 176.458 90.125C182.829 90.125 188.041 84.9125 188.041 78.5417C188.041 72.1708 182.829 66.9583 176.458 66.9583ZM89.5832 136.458C89.5832 134.315 89.8727 132.23 90.2782 130.203L79.0423 123.717L87.7298 108.658L99.0236 115.145C102.093 112.307 105.8 110.222 109.854 108.948V95.8588H127.229V108.948C131.283 110.222 134.99 112.365 138.059 115.145L149.353 108.658L158.041 123.717L146.805 130.203C147.268 132.23 147.5 134.315 147.5 136.458C147.5 138.601 147.21 140.686 146.805 142.713L158.041 149.2L149.353 164.258L138.059 157.772C134.99 160.61 131.283 162.695 127.229 163.969V177.058H109.854V163.969C105.8 162.695 102.093 160.552 99.0236 157.772L87.7298 164.258L79.0423 149.2L90.2782 142.713C89.8148 140.686 89.5832 138.601 89.5832 136.458ZM118.541 148.042C124.912 148.042 130.125 142.829 130.125 136.458C130.125 130.088 124.912 124.875 118.541 124.875C112.171 124.875 106.958 130.088 106.958 136.458C106.958 142.829 112.171 148.042 118.541 148.042Z" fill="black"/>
</g>
<path d="M203 272C196.925 272 192 267.075 192 261L192 105C192 98.9248 196.925 94 203 94H324C330.075 94 335 98.9249 335 105V261C335 267.075 330.075 272 324 272H203Z" fill="white" stroke="black" stroke-width="11"/>
<rect x="287" y="155" width="65" height="117" rx="11" fill="white" stroke="black" stroke-width="11"/>
<defs>
<clipPath id="clip0_3250_1106">
<rect width="139" height="139" fill="white" transform="matrix(-1 0 0 1 217 38)"/>
</clipPath>
</defs>
</svg>
