<svg xmlns="http://www.w3.org/2000/svg" xmlns:xlink="http://www.w3.org/1999/xlink" width="340" zoomAndPan="magnify" viewBox="0 0 255 71.249999" height="95" preserveAspectRatio="xMidYMid meet" version="1.0"><defs><g/><clipPath id="d33bd9fe0e"><path d="M 1.328125 1.046875 L 69.742188 1.046875 L 69.742188 69.460938 L 1.328125 69.460938 Z M 1.328125 1.046875 " clip-rule="nonzero"/></clipPath><clipPath id="4f6aa3cbf8"><path d="M 8.257812 1.046875 L 62.816406 1.046875 C 66.640625 1.046875 69.742188 4.148438 69.742188 7.972656 L 69.742188 62.535156 C 69.742188 66.359375 66.640625 69.460938 62.816406 69.460938 L 8.257812 69.460938 C 4.429688 69.460938 1.328125 66.359375 1.328125 62.535156 L 1.328125 7.972656 C 1.328125 4.148438 4.429688 1.046875 8.257812 1.046875 Z M 8.257812 1.046875 " clip-rule="nonzero"/></clipPath><clipPath id="02c2671d2c"><path d="M 8.132812 14.742188 L 21 14.742188 L 21 55.5625 L 8.132812 55.5625 Z M 8.132812 14.742188 " clip-rule="nonzero"/></clipPath><clipPath id="a139f292ac"><path d="M 50 14.742188 L 63.152344 14.742188 L 63.152344 55.5625 L 50 55.5625 Z M 50 14.742188 " clip-rule="nonzero"/></clipPath></defs><g clip-path="url(#d33bd9fe0e)"><g clip-path="url(#4f6aa3cbf8)"><path fill="#055890" d="M 1.328125 1.046875 L 69.742188 1.046875 L 69.742188 69.460938 L 1.328125 69.460938 Z M 1.328125 1.046875 " fill-opacity="1" fill-rule="nonzero"/></g></g><g clip-path="url(#02c2671d2c)"><path fill="#ffffff" d="M 19.53125 19.300781 L 20.671875 19.300781 L 20.671875 14.742188 L 19.53125 14.742188 C 15.757812 14.742188 12.695312 17.800781 12.695312 21.578125 L 12.695312 29.554688 C 12.695312 30.269531 12.359375 30.945312 11.785156 31.375 L 9.050781 33.425781 C 8.503906 33.835938 8.167969 34.472656 8.140625 35.15625 C 8.113281 35.839844 8.390625 36.5 8.902344 36.953125 L 11.929688 39.644531 C 12.417969 40.078125 12.695312 40.695312 12.695312 41.347656 L 12.695312 48.921875 C 12.695312 52.699219 15.757812 55.757812 19.53125 55.757812 L 20.671875 55.757812 L 20.671875 51.203125 L 19.53125 51.203125 C 18.273438 51.203125 17.253906 50.179688 17.253906 48.921875 L 17.253906 41.347656 C 17.253906 39.394531 16.417969 37.535156 14.957031 36.238281 L 14.015625 35.398438 L 14.519531 35.023438 C 16.242188 33.730469 17.253906 31.707031 17.253906 29.554688 L 17.253906 21.578125 C 17.253906 20.320312 18.273438 19.300781 19.53125 19.300781 Z M 19.53125 19.300781 " fill-opacity="1" fill-rule="evenodd"/></g><g clip-path="url(#a139f292ac)"><path fill="#ffffff" d="M 51.753906 19.300781 L 50.613281 19.300781 L 50.613281 14.742188 L 51.753906 14.742188 C 55.53125 14.742188 58.589844 17.800781 58.589844 21.578125 L 58.589844 29.554688 C 58.589844 30.269531 58.929688 30.945312 59.503906 31.375 L 62.238281 33.425781 C 62.785156 33.835938 63.117188 34.472656 63.144531 35.15625 C 63.175781 35.839844 62.894531 36.5 62.382812 36.953125 L 59.355469 39.644531 C 58.867188 40.078125 58.589844 40.695312 58.589844 41.347656 L 58.589844 48.921875 C 58.589844 52.699219 55.53125 55.757812 51.753906 55.757812 L 50.613281 55.757812 L 50.613281 51.203125 L 51.753906 51.203125 C 53.011719 51.203125 54.03125 50.179688 54.03125 48.921875 L 54.03125 41.347656 C 54.03125 39.394531 54.867188 37.535156 56.328125 36.238281 L 57.269531 35.398438 L 56.765625 35.023438 C 55.046875 33.730469 54.03125 31.707031 54.03125 29.554688 L 54.03125 21.578125 C 54.03125 20.320312 53.011719 19.300781 51.753906 19.300781 Z M 51.753906 19.300781 " fill-opacity="1" fill-rule="evenodd"/></g><g fill="#292929" fill-opacity="1"><g transform="translate(84.156022, 53.082341)"><g><path d="M 34.828125 -17.703125 C 34.828125 -12.367188 33.289062 -7.992188 30.21875 -4.578125 C 27.144531 -1.171875 22.972656 0.53125 17.703125 0.53125 C 12.429688 0.53125 8.316406 -1.1875 5.359375 -4.625 C 2.398438 -8.070312 0.921875 -12.46875 0.921875 -17.8125 C 0.921875 -23.175781 2.40625 -27.554688 5.375 -30.953125 C 8.351562 -34.347656 12.476562 -36.046875 17.75 -36.046875 C 23.15625 -36.046875 27.351562 -34.351562 30.34375 -30.96875 C 33.332031 -27.59375 34.828125 -23.171875 34.828125 -17.703125 Z M 27.65625 -17.515625 C 27.65625 -19.222656 27.492188 -20.84375 27.171875 -22.375 C 26.847656 -23.914062 26.328125 -25.390625 25.609375 -26.796875 C 24.898438 -28.210938 23.875 -29.335938 22.53125 -30.171875 C 21.1875 -31.015625 19.613281 -31.4375 17.8125 -31.4375 C 16.03125 -31.4375 14.472656 -31.039062 13.140625 -30.25 C 11.816406 -29.457031 10.800781 -28.390625 10.09375 -27.046875 C 9.382812 -25.703125 8.863281 -24.273438 8.53125 -22.765625 C 8.207031 -21.265625 8.046875 -19.675781 8.046875 -18 C 8.046875 -16.28125 8.207031 -14.648438 8.53125 -13.109375 C 8.863281 -11.578125 9.382812 -10.109375 10.09375 -8.703125 C 10.800781 -7.296875 11.828125 -6.171875 13.171875 -5.328125 C 14.515625 -4.492188 16.09375 -4.078125 17.90625 -4.078125 C 19.6875 -4.078125 21.238281 -4.472656 22.5625 -5.265625 C 23.882812 -6.054688 24.898438 -7.125 25.609375 -8.46875 C 26.328125 -9.8125 26.847656 -11.234375 27.171875 -12.734375 C 27.492188 -14.234375 27.65625 -15.828125 27.65625 -17.515625 Z M 27.65625 -17.515625 "/></g></g></g><g fill="#292929" fill-opacity="1"><g transform="translate(119.128183, 53.082341)"><g><path d="M 26.640625 -24.890625 C 26.640625 -21.398438 25.398438 -18.753906 22.921875 -16.953125 C 20.453125 -15.160156 17.421875 -14.265625 13.828125 -14.265625 L 9.84375 -14.265625 L 9.84375 0 L 3.203125 0 L 3.203125 -32.546875 C 3.203125 -32.617188 3.085938 -33.097656 2.859375 -33.984375 C 2.628906 -34.867188 2.5 -35.378906 2.46875 -35.515625 L 13.734375 -35.515625 C 17.609375 -35.515625 20.726562 -34.679688 23.09375 -33.015625 C 25.457031 -31.347656 26.640625 -28.640625 26.640625 -24.890625 Z M 19.546875 -24.890625 C 19.546875 -26.703125 19.078125 -28.125 18.140625 -29.15625 C 17.203125 -30.1875 15.828125 -30.703125 14.015625 -30.703125 L 9.890625 -30.703125 L 9.890625 -18.96875 L 13.96875 -18.96875 C 15.71875 -18.96875 17.082031 -19.507812 18.0625 -20.59375 C 19.050781 -21.675781 19.546875 -23.109375 19.546875 -24.890625 Z M 19.546875 -24.890625 "/></g></g></g><g fill="#292929" fill-opacity="1"><g transform="translate(146.242497, 53.082341)"><g><path d="M 24.84375 0 L 3.25 0 L 3.25 -32.546875 L 2.515625 -35.515625 L 24.84375 -35.515625 L 24.84375 -30.703125 L 9.890625 -30.703125 L 9.890625 -20.671875 L 21.34375 -20.671875 L 21.34375 -15.859375 L 9.890625 -15.859375 L 9.890625 -4.796875 L 24.84375 -4.796875 Z M 24.84375 0 "/></g></g></g><g fill="#292929" fill-opacity="1"><g transform="translate(172.095667, 53.082341)"><g><path d="M 31.53125 0.25 L 26.296875 0.25 L 10.328125 -24.109375 C 9.234375 -25.828125 8.554688 -26.910156 8.296875 -27.359375 C 8.492188 -25.222656 8.59375 -24.140625 8.59375 -24.109375 L 8.59375 0 L 3.203125 0 L 3.203125 -32.5 C 3.203125 -32.53125 3.144531 -32.769531 3.03125 -33.21875 C 2.914062 -33.675781 2.800781 -34.148438 2.6875 -34.640625 C 2.570312 -35.128906 2.515625 -35.40625 2.515625 -35.46875 L 10.484375 -35.46875 L 24.453125 -14.21875 C 24.929688 -13.5 25.59375 -12.429688 26.4375 -11.015625 C 26.25 -13.441406 26.15625 -14.6875 26.15625 -14.75 L 26.15625 -35.46875 L 31.53125 -35.46875 Z M 31.53125 0.25 "/></g></g></g><g fill="#292929" fill-opacity="1"><g transform="translate(205.952206, 53.082341)"><g><path d="M 31.25 -13.484375 C 31.25 -8.671875 29.976562 -5.128906 27.4375 -2.859375 C 24.894531 -0.597656 21.503906 0.53125 17.265625 0.53125 C 12.773438 0.53125 9.320312 -0.671875 6.90625 -3.078125 C 4.5 -5.484375 3.296875 -8.953125 3.296875 -13.484375 L 3.296875 -32.609375 L 2.515625 -35.515625 L 10.140625 -35.515625 L 10.140625 -11.890625 C 10.140625 -9.523438 10.847656 -7.628906 12.265625 -6.203125 C 13.691406 -4.785156 15.585938 -4.078125 17.953125 -4.078125 C 20.347656 -4.078125 22.25 -4.769531 23.65625 -6.15625 C 25.0625 -7.550781 25.765625 -9.460938 25.765625 -11.890625 L 25.765625 -35.515625 L 31.25 -35.515625 Z M 31.25 -13.484375 "/></g></g></g><g fill="#292929" fill-opacity="1"><g transform="translate(239.469207, 53.082341)"><g><path d="M 9.890625 0 L 3.203125 0 L 3.203125 -32.546875 C 3.203125 -32.585938 3.144531 -32.832031 3.03125 -33.28125 C 2.914062 -33.726562 2.800781 -34.195312 2.6875 -34.6875 C 2.570312 -35.175781 2.515625 -35.453125 2.515625 -35.515625 L 9.890625 -35.515625 Z M 9.890625 0 "/></g></g></g><g fill="#ffffff" fill-opacity="1"><g transform="translate(20.97414, 49.044408)"><g><path d="M 29.265625 -14.875 C 29.265625 -10.394531 27.972656 -6.71875 25.390625 -3.84375 C 22.804688 -0.976562 19.300781 0.453125 14.875 0.453125 C 10.445312 0.453125 6.988281 -0.992188 4.5 -3.890625 C 2.019531 -6.785156 0.78125 -10.472656 0.78125 -14.953125 C 0.78125 -19.460938 2.023438 -23.144531 4.515625 -26 C 7.015625 -28.851562 10.484375 -30.28125 14.921875 -30.28125 C 19.453125 -30.28125 22.972656 -28.859375 25.484375 -26.015625 C 28.003906 -23.179688 29.265625 -19.46875 29.265625 -14.875 Z M 23.234375 -14.703125 C 23.234375 -16.148438 23.09375 -17.515625 22.8125 -18.796875 C 22.539062 -20.085938 22.109375 -21.320312 21.515625 -22.5 C 20.921875 -23.6875 20.054688 -24.632812 18.921875 -25.34375 C 17.796875 -26.050781 16.472656 -26.40625 14.953125 -26.40625 C 13.460938 -26.40625 12.160156 -26.070312 11.046875 -25.40625 C 9.929688 -24.738281 9.070312 -23.84375 8.46875 -22.71875 C 7.875 -21.59375 7.441406 -20.394531 7.171875 -19.125 C 6.898438 -17.863281 6.765625 -16.53125 6.765625 -15.125 C 6.765625 -13.675781 6.898438 -12.304688 7.171875 -11.015625 C 7.441406 -9.734375 7.875 -8.5 8.46875 -7.3125 C 9.070312 -6.132812 9.9375 -5.191406 11.0625 -4.484375 C 12.1875 -3.773438 13.507812 -3.421875 15.03125 -3.421875 C 16.53125 -3.421875 17.835938 -3.753906 18.953125 -4.421875 C 20.066406 -5.085938 20.921875 -5.984375 21.515625 -7.109375 C 22.109375 -8.234375 22.539062 -9.425781 22.8125 -10.6875 C 23.09375 -11.957031 23.234375 -13.296875 23.234375 -14.703125 Z M 23.234375 -14.703125 "/></g></g></g></svg>