<svg xmlns="http://www.w3.org/2000/svg" xmlns:xlink="http://www.w3.org/1999/xlink" width="500" zoomAndPan="magnify" viewBox="0 0 375 374.999991" height="500" preserveAspectRatio="xMidYMid meet" version="1.0"><defs><g/><clipPath id="1195e1c196"><path d="M 43.5 153.535156 L 114.011719 153.535156 L 114.011719 224.050781 L 43.5 224.050781 Z M 43.5 153.535156 " clip-rule="nonzero"/></clipPath><clipPath id="6368d5a4b6"><path d="M 63 153.535156 L 94.511719 153.535156 C 105.28125 153.535156 114.011719 162.265625 114.011719 173.035156 L 114.011719 204.550781 C 114.011719 215.320312 105.28125 224.050781 94.511719 224.050781 L 63 224.050781 C 52.230469 224.050781 43.5 215.320312 43.5 204.550781 L 43.5 173.035156 C 43.5 162.265625 52.230469 153.535156 63 153.535156 Z M 63 153.535156 " clip-rule="nonzero"/></clipPath><clipPath id="137c21afb7"><path d="M 50.511719 167.652344 L 64 167.652344 L 64 209.652344 L 50.511719 209.652344 Z M 50.511719 167.652344 " clip-rule="nonzero"/></clipPath><clipPath id="eb8b61aa5e"><path d="M 94 167.652344 L 107.117188 167.652344 L 107.117188 209.652344 L 94 209.652344 Z M 94 167.652344 " clip-rule="nonzero"/></clipPath></defs><g clip-path="url(#1195e1c196)"><g clip-path="url(#6368d5a4b6)"><path fill="#055890" d="M 43.5 153.535156 L 114.011719 153.535156 L 114.011719 224.050781 L 43.5 224.050781 Z M 43.5 153.535156 " fill-opacity="1" fill-rule="nonzero"/></g></g><g clip-path="url(#137c21afb7)"><path fill="#ffffff" d="M 62.261719 172.351562 L 63.4375 172.351562 L 63.4375 167.652344 L 62.261719 167.652344 C 58.371094 167.652344 55.214844 170.808594 55.214844 174.699219 L 55.214844 182.921875 C 55.214844 183.660156 54.867188 184.355469 54.277344 184.800781 L 51.457031 186.914062 C 50.894531 187.335938 50.550781 187.992188 50.519531 188.695312 C 50.492188 189.398438 50.777344 190.082031 51.304688 190.546875 L 54.425781 193.320312 C 54.929688 193.765625 55.214844 194.40625 55.214844 195.078125 L 55.214844 202.886719 C 55.214844 206.777344 58.371094 209.933594 62.261719 209.933594 L 63.4375 209.933594 L 63.4375 205.234375 L 62.261719 205.234375 C 60.964844 205.234375 59.914062 204.183594 59.914062 202.886719 L 59.914062 195.078125 C 59.914062 193.066406 59.050781 191.148438 57.546875 189.808594 L 56.574219 188.945312 L 57.09375 188.558594 C 58.871094 187.226562 59.914062 185.136719 59.914062 182.921875 L 59.914062 174.699219 C 59.914062 173.402344 60.964844 172.351562 62.261719 172.351562 Z M 62.261719 172.351562 " fill-opacity="1" fill-rule="evenodd"/></g><g clip-path="url(#eb8b61aa5e)"><path fill="#ffffff" d="M 95.472656 172.351562 L 94.300781 172.351562 L 94.300781 167.652344 L 95.472656 167.652344 C 99.367188 167.652344 102.519531 170.808594 102.519531 174.699219 L 102.519531 182.921875 C 102.519531 183.660156 102.867188 184.355469 103.460938 184.800781 L 106.277344 186.914062 C 106.84375 187.335938 107.1875 187.992188 107.214844 188.695312 C 107.246094 189.398438 106.957031 190.082031 106.429688 190.546875 L 103.308594 193.320312 C 102.808594 193.765625 102.519531 194.40625 102.519531 195.078125 L 102.519531 202.886719 C 102.519531 206.777344 99.367188 209.933594 95.472656 209.933594 L 94.300781 209.933594 L 94.300781 205.234375 L 95.472656 205.234375 C 96.769531 205.234375 97.824219 204.183594 97.824219 202.886719 L 97.824219 195.078125 C 97.824219 193.066406 98.683594 191.148438 100.1875 189.808594 L 101.160156 188.945312 L 100.640625 188.558594 C 98.867188 187.226562 97.824219 185.136719 97.824219 182.921875 L 97.824219 174.699219 C 97.824219 173.402344 96.769531 172.351562 95.472656 172.351562 Z M 95.472656 172.351562 " fill-opacity="1" fill-rule="evenodd"/></g><g fill="#292929" fill-opacity="1"><g transform="translate(126.685412, 206.381574)"><g><path d="M 35.90625 -18.25 C 35.90625 -12.75 34.320312 -8.238281 31.15625 -4.71875 C 27.988281 -1.207031 23.6875 0.546875 18.25 0.546875 C 12.8125 0.546875 8.566406 -1.222656 5.515625 -4.765625 C 2.472656 -8.316406 0.953125 -12.84375 0.953125 -18.34375 C 0.953125 -23.882812 2.484375 -28.40625 5.546875 -31.90625 C 8.617188 -35.40625 12.867188 -37.15625 18.296875 -37.15625 C 23.867188 -37.15625 28.195312 -35.410156 31.28125 -31.921875 C 34.363281 -28.441406 35.90625 -23.882812 35.90625 -18.25 Z M 28.5 -18.046875 C 28.5 -19.816406 28.332031 -21.492188 28 -23.078125 C 27.664062 -24.660156 27.128906 -26.175781 26.390625 -27.625 C 25.660156 -29.070312 24.601562 -30.226562 23.21875 -31.09375 C 21.84375 -31.96875 20.21875 -32.40625 18.34375 -32.40625 C 16.507812 -32.40625 14.910156 -31.992188 13.546875 -31.171875 C 12.179688 -30.359375 11.128906 -29.257812 10.390625 -27.875 C 9.660156 -26.488281 9.128906 -25.019531 8.796875 -23.46875 C 8.460938 -21.925781 8.296875 -20.285156 8.296875 -18.546875 C 8.296875 -16.785156 8.460938 -15.113281 8.796875 -13.53125 C 9.128906 -11.945312 9.660156 -10.425781 10.390625 -8.96875 C 11.128906 -7.519531 12.191406 -6.363281 13.578125 -5.5 C 14.960938 -4.632812 16.585938 -4.203125 18.453125 -4.203125 C 20.285156 -4.203125 21.882812 -4.609375 23.25 -5.421875 C 24.613281 -6.242188 25.660156 -7.34375 26.390625 -8.71875 C 27.128906 -10.101562 27.664062 -11.570312 28 -13.125 C 28.332031 -14.675781 28.5 -16.316406 28.5 -18.046875 Z M 28.5 -18.046875 "/></g></g></g><g fill="#292929" fill-opacity="1"><g transform="translate(162.72971, 206.381574)"><g><path d="M 27.453125 -25.65625 C 27.453125 -22.050781 26.175781 -19.320312 23.625 -17.46875 C 21.070312 -15.625 17.945312 -14.703125 14.25 -14.703125 L 10.15625 -14.703125 L 10.15625 0 L 3.296875 0 L 3.296875 -33.546875 C 3.296875 -33.617188 3.175781 -34.113281 2.9375 -35.03125 C 2.707031 -35.945312 2.578125 -36.46875 2.546875 -36.59375 L 14.15625 -36.59375 C 18.15625 -36.59375 21.367188 -35.734375 23.796875 -34.015625 C 26.234375 -32.304688 27.453125 -29.519531 27.453125 -25.65625 Z M 20.15625 -25.65625 C 20.15625 -27.519531 19.671875 -28.984375 18.703125 -30.046875 C 17.734375 -31.117188 16.316406 -31.65625 14.453125 -31.65625 L 10.203125 -31.65625 L 10.203125 -19.546875 L 14.40625 -19.546875 C 16.195312 -19.546875 17.601562 -20.101562 18.625 -21.21875 C 19.644531 -22.34375 20.15625 -23.820312 20.15625 -25.65625 Z M 20.15625 -25.65625 "/></g></g></g><g fill="#292929" fill-opacity="1"><g transform="translate(190.675265, 206.381574)"><g><path d="M 25.59375 0 L 3.34375 0 L 3.34375 -33.546875 L 2.59375 -36.59375 L 25.59375 -36.59375 L 25.59375 -31.65625 L 10.203125 -31.65625 L 10.203125 -21.296875 L 22 -21.296875 L 22 -16.34375 L 10.203125 -16.34375 L 10.203125 -4.953125 L 25.59375 -4.953125 Z M 25.59375 0 "/></g></g></g><g fill="#292929" fill-opacity="1"><g transform="translate(217.321011, 206.381574)"><g><path d="M 32.5 0.25 L 27.09375 0.25 L 10.65625 -24.84375 C 9.519531 -26.613281 8.816406 -27.734375 8.546875 -28.203125 C 8.742188 -26.003906 8.84375 -24.882812 8.84375 -24.84375 L 8.84375 0 L 3.296875 0 L 3.296875 -33.5 C 3.296875 -33.53125 3.238281 -33.78125 3.125 -34.25 C 3.007812 -34.71875 2.890625 -35.203125 2.765625 -35.703125 C 2.648438 -36.203125 2.59375 -36.484375 2.59375 -36.546875 L 10.796875 -36.546875 L 25.203125 -14.65625 C 25.703125 -13.914062 26.382812 -12.8125 27.25 -11.34375 C 27.050781 -13.84375 26.953125 -15.128906 26.953125 -15.203125 L 26.953125 -36.546875 L 32.5 -36.546875 Z M 32.5 0.25 "/></g></g></g><g fill="#292929" fill-opacity="1"><g transform="translate(252.215486, 206.381574)"><g><path d="M 32.203125 -13.90625 C 32.203125 -8.9375 30.890625 -5.285156 28.265625 -2.953125 C 25.648438 -0.617188 22.160156 0.546875 17.796875 0.546875 C 13.160156 0.546875 9.601562 -0.691406 7.125 -3.171875 C 4.644531 -5.660156 3.40625 -9.238281 3.40625 -13.90625 L 3.40625 -33.59375 L 2.59375 -36.59375 L 10.453125 -36.59375 L 10.453125 -12.25 C 10.453125 -9.8125 11.179688 -7.859375 12.640625 -6.390625 C 14.109375 -4.929688 16.0625 -4.203125 18.5 -4.203125 C 20.96875 -4.203125 22.925781 -4.914062 24.375 -6.34375 C 25.820312 -7.78125 26.546875 -9.75 26.546875 -12.25 L 26.546875 -36.59375 L 32.203125 -36.59375 Z M 32.203125 -13.90625 "/></g></g></g><g fill="#292929" fill-opacity="1"><g transform="translate(286.760013, 206.381574)"><g><path d="M 10.203125 0 L 3.296875 0 L 3.296875 -33.546875 C 3.296875 -33.578125 3.238281 -33.828125 3.125 -34.296875 C 3.007812 -34.765625 2.890625 -35.25 2.765625 -35.75 C 2.648438 -36.25 2.59375 -36.53125 2.59375 -36.59375 L 10.203125 -36.59375 Z M 10.203125 0 "/></g></g></g><g fill="#ffffff" fill-opacity="1"><g transform="translate(63.748295, 203.006559)"><g><path d="M 30.15625 -15.328125 C 30.15625 -10.710938 28.820312 -6.925781 26.15625 -3.96875 C 23.5 -1.007812 19.890625 0.46875 15.328125 0.46875 C 10.765625 0.46875 7.203125 -1.019531 4.640625 -4 C 2.078125 -6.988281 0.796875 -10.789062 0.796875 -15.40625 C 0.796875 -20.0625 2.082031 -23.859375 4.65625 -26.796875 C 7.238281 -29.734375 10.8125 -31.203125 15.375 -31.203125 C 20.050781 -31.203125 23.679688 -29.738281 26.265625 -26.8125 C 28.859375 -23.882812 30.15625 -20.054688 30.15625 -15.328125 Z M 23.9375 -15.15625 C 23.9375 -16.644531 23.796875 -18.050781 23.515625 -19.375 C 23.234375 -20.707031 22.785156 -21.984375 22.171875 -23.203125 C 21.554688 -24.421875 20.664062 -25.394531 19.5 -26.125 C 18.34375 -26.851562 16.976562 -27.21875 15.40625 -27.21875 C 13.875 -27.21875 12.53125 -26.875 11.375 -26.1875 C 10.226562 -25.5 9.347656 -24.570312 8.734375 -23.40625 C 8.117188 -22.25 7.671875 -21.019531 7.390625 -19.71875 C 7.109375 -18.414062 6.96875 -17.035156 6.96875 -15.578125 C 6.96875 -14.097656 7.109375 -12.691406 7.390625 -11.359375 C 7.671875 -10.023438 8.117188 -8.75 8.734375 -7.53125 C 9.347656 -6.320312 10.234375 -5.351562 11.390625 -4.625 C 12.554688 -3.894531 13.925781 -3.53125 15.5 -3.53125 C 17.039062 -3.53125 18.382812 -3.875 19.53125 -4.5625 C 20.675781 -5.25 21.554688 -6.171875 22.171875 -7.328125 C 22.785156 -8.492188 23.234375 -9.726562 23.515625 -11.03125 C 23.796875 -12.332031 23.9375 -13.707031 23.9375 -15.15625 Z M 23.9375 -15.15625 "/></g></g></g></svg>